:SAMPLES-PER-SECOND 30
:FULLY-SPECIFIED
:DEGREES
310
root  5.30902 33.5316 5.49315 11.4362 -49.4845 -8.87964
LeftUpLeg  -14.7153 3.67919 19.8847
LeftLeg  5.53669 2.86075 0.091972
LeftFoot  19.5806 -0.1444 0.836811
LeftToes  -31.0777 1.85109e-006 5.31342e-008
Spine  2.10909 0.260187 5.06034
Spine1  4.0954 0.235783 10.0494
RightShoulder  0.119578 5.72295 11.3394
RightArm  -45.6696 -22.843 60.1064
RightForeArm  50.8176 6.56783 1.14026
RightHand  1.2069 -14.2522 -9.25713
LeftShoulder1  -0.00039675 4.05226 -7.84241
LeftArm  -23.1169 26.7973 -73.2736
LeftForeArm  31.8705 -31.4015 -6.17058
LeftHand  0.0115869 0.681072 1.78544
HEad  -8.36847 31.4906 -9.12837
RightUpLeg  -11.9137 -14.742 10.0731
RightLeg  16.4792 -4.77454 -1.08223
RightFoot  -5.63834 0.0120171 0.452321
RightToes  -16.8959 -0.0648389 -0.151408
311
root  5.2916 33.5251 5.36357 11.3161 -49.6288 -8.76743
LeftUpLeg  -15.11 4.03911 19.627
LeftLeg  6.1853 4.55052 0.19804
LeftFoot  19.618 -0.243393 1.4077
LeftToes  -29.6889 1.85109e-006 5.31342e-008
Spine  2.19734 0.345901 5.15666
Spine1  4.27726 0.449325 10.1358
RightShoulder  0.139355 6.07823 11.3125
RightArm  -45.4194 -20.8287 58.9045
RightForeArm  50.8562 6.50242 1.12857
RightHand  1.2908 -14.3667 -9.84051
LeftShoulder1  -0.000423036 3.73983 -7.68535
LeftArm  -23.2367 26.7469 -73.3785
LeftForeArm  31.8389 -31.3515 -6.15839
LeftHand  0.0109449 0.717236 1.67304
HEad  -9.01045 31.4935 -9.52433
RightUpLeg  -11.952 -14.4069 10.2187
RightLeg  16.3692 -5.02252 -1.12811
RightFoot  -5.68462 0.0110222 0.476698
RightToes  -15.7047 -0.059512 -0.141422
312
root  5.29223 33.5285 5.23317 11.069 -49.6037 -8.44768
LeftUpLeg  -15.5235 4.01975 19.2712
LeftLeg  6.55948 5.59328 0.27996
LeftFoot  19.3821 -0.297623 1.74267
LeftToes  -26.4679 1.85109e-006 5.31342e-008
Spine  2.30048 0.446225 5.22994
Spine1  4.4964 0.712684 10.1495
RightShoulder  0.160285 6.35517 11.2229
RightArm  -44.9911 -18.5645 57.9563
RightForeArm  50.4581 6.81855 1.18545
RightHand  1.34421 -14.3853 -10.2469
LeftShoulder1  -0.000540246 3.47327 -7.58574
LeftArm  -22.9998 26.5388 -73.4489
LeftForeArm  31.8131 -31.3728 -6.16361
LeftHand  0.00966125 0.778602 1.46203
HEad  -9.72178 31.2934 -9.95195
RightUpLeg  -12.0057 -13.8931 10.2447
RightLeg  16.1572 -5.5979 -1.2351
RightFoot  -5.67089 0.00811869 0.530097
RightToes  -14.802 -0.0544164 -0.133773
313
root  5.31745 33.5396 5.10505 10.6732 -49.4255 -7.92538
LeftUpLeg  -15.9697 3.60933 18.8766
LeftLeg  6.83996 6.53869 0.359211
LeftFoot  19.2739 -0.349343 2.05714
LeftToes  -23.4066 1.85109e-006 5.31342e-008
Spine  2.42781 0.59261 5.27799
Spine1  4.77366 1.08402 10.0954
RightShoulder  0.178567 6.47878 11.0585
RightArm  -44.1346 -16.1739 57.254
RightForeArm  49.4531 7.5586 1.31903
RightHand  1.3722 -14.265 -10.5584
LeftShoulder1  -0.00073669 3.24574 -7.48567
LeftArm  -22.684 26.1993 -73.5978
LeftForeArm  31.7684 -31.6546 -6.23257
LeftHand  0.00826973 0.910835 1.26452
HEad  -10.5349 30.8859 -10.4681
RightUpLeg  -12.1996 -13.8589 10.1358
RightLeg  16.1182 -5.88742 -1.29451
RightFoot  -5.51307 0.00789568 0.541607
RightToes  -14.6214 -0.0522248 -0.132234
314
root  5.34883 33.5533 4.97187 10.0669 -49.0318 -7.17387
LeftUpLeg  -16.7044 3.82457 18.1275
LeftLeg  7.53207 7.45919 0.499724
LeftFoot  19.1381 -0.398858 2.36562
LeftToes  -20.8326 1.85109e-006 5.31342e-008
Spine  2.57916 0.766453 5.26094
Spine1  5.10486 1.52267 9.90856
RightShoulder  0.192249 6.41514 10.8829
RightArm  -42.3472 -13.8017 56.8101
RightForeArm  47.4466 8.75124 1.53586
RightHand  1.378 -14.2052 -10.6507
LeftShoulder1  -0.00100068 3.00458 -7.2779
LeftArm  -22.4525 25.7957 -73.8227
LeftForeArm  31.7254 -32.2175 -6.37158
LeftHand  0.00715416 0.925328 1.08874
HEad  -11.2751 30.2369 -10.8849
RightUpLeg  -12.3624 -14.1023 9.89822
RightLeg  16.0226 -6.15858 -1.34307
RightFoot  -5.34267 0.00822771 0.551043
RightToes  -14.6278 -0.0512553 -0.130639
315
root  5.38463 33.5634 4.84155 9.54694 -48.4959 -6.54529
LeftUpLeg  -17.4747 3.79995 17.5304
LeftLeg  8.29999 7.95835 0.639819
LeftFoot  18.236 -0.390063 2.42999
LeftToes  -16.3408 1.85109e-006 5.31342e-008
Spine  2.74902 0.972565 5.27242
Spine1  5.47636 2.02874 9.77639
RightShoulder  0.207698 6.48226 10.7072
RightArm  -40.4589 -11.6471 56.355
RightForeArm  45.2612 10.2207 1.80439
RightHand  1.35072 -14.1082 -10.5084
LeftShoulder1  -0.00132053 2.7794 -7.1089
LeftArm  -21.9522 25.4454 -74.0308
LeftForeArm  31.4527 -33.2092 -6.62101
LeftHand  0.00661644 0.916654 1.07025
HEad  -11.9356 29.4684 -11.1323
RightUpLeg  -12.4532 -14.324 9.72536
RightLeg  15.7658 -6.53844 -1.39483
RightFoot  -5.15812 0.00797134 0.56795
RightToes  -14.4742 -0.0514007 -0.12936
316
root  5.41887 33.5736 4.72336 9.03221 -47.9136 -5.93999
LeftUpLeg  -18.3128 4.21835 16.838
LeftLeg  9.53104 9.32915 0.950333
LeftFoot  17.0947 -0.407702 2.71216
LeftToes  -12.5407 1.85109e-006 5.31342e-008
Spine  2.93796 1.22581 5.2788
Spine1  5.88864 2.628 9.64168
RightShoulder  0.222355 6.55516 10.5677
RightArm  -38.6103 -9.57735 55.8642
RightForeArm  43.2762 11.6478 2.06729
RightHand  1.32677 -13.9786 -10.4161
LeftShoulder1  -0.00168455 2.60502 -7.0124
LeftArm  -21.2802 25.0344 -74.1792
LeftForeArm  31.1735 -34.3023 -6.9028
LeftHand  0.00634735 0.866074 1.1238
HEad  -12.4776 28.5753 -11.2561
RightUpLeg  -12.4737 -14.855 9.54937
RightLeg  15.4028 -6.69514 -1.38381
RightFoot  -4.93647 0.00782795 0.559229
RightToes  -14.4136 -0.0525542 -0.13046
317
root  5.44425 33.596 4.60878 8.54242 -47.3829 -5.29897
LeftUpLeg  -18.9659 5.10339 16.0322
LeftLeg  10.8075 11.7402 1.45589
LeftFoot  14.9874 -0.400807 3.0463
LeftToes  -10.9646 1.85109e-006 5.31342e-008
Spine  3.11552 1.53963 5.24195
Spine1  6.27774 3.34648 9.43905
RightShoulder  0.236021 6.65207 10.4952
RightArm  -36.9734 -7.60322 55.3826
RightForeArm  41.64 12.8254 2.28619
RightHand  1.3291 -13.8933 -10.5015
LeftShoulder1  -0.00208105 2.49771 -6.93694
LeftArm  -20.6214 24.5995 -74.2852
LeftForeArm  31.0081 -35.3488 -7.17971
LeftHand  0.00570766 0.795342 1.0886
HEad  -12.8809 27.6985 -11.3304
RightUpLeg  -12.3613 -14.9012 9.31076
RightLeg  14.7121 -7.2836 -1.41346
RightFoot  -4.26912 0.00559598 0.527774
RightToes  -15.1827 -0.0562631 -0.137007
318
root  5.45844 33.6278 4.50065 8.06552 -46.9353 -4.64664
LeftUpLeg  -19.308 6.71475 15.1478
LeftLeg  11.7503 13.5666 1.90326
LeftFoot  12.8284 -0.343239 3.05251
LeftToes  -11.2954 1.85109e-006 5.31342e-008
Spine  3.26153 1.87734 5.17014
Spine1  6.59968 4.10595 9.19412
RightShoulder  0.24957 6.89143 10.3699
RightArm  -35.8984 -5.8203 55.0406
RightForeArm  40.7671 13.6122 2.43331
RightHand  1.34314 -13.7925 -10.6709
LeftShoulder1  -0.00249834 2.42762 -6.87116
LeftArm  -20.1613 24.2906 -74.3895
LeftForeArm  30.8761 -36.2837 -7.43345
LeftHand  0.00530394 0.74753 1.14455
HEad  -13.0773 26.8495 -11.3259
RightUpLeg  -12.1245 -14.8434 9.03525
RightLeg  13.7782 -7.91865 -1.40259
RightFoot  -3.30261 0.00192614 0.444457
RightToes  -16.5754 -0.0632021 -0.148733
319
root  5.48311 33.6582 4.39931 7.59415 -46.6128 -3.99698
LeftUpLeg  -19.6175 9.07881 14.0869
LeftLeg  12.9865 14.7812 2.39213
LeftFoot  10.8221 -0.268746 2.83661
LeftToes  -12.5258 1.85109e-006 5.31342e-008
Spine  3.39272 2.2477 5.05735
Spine1  6.88559 4.92858 8.88547
RightShoulder  0.263351 7.1594 10.1777
RightArm  -35.3108 -4.16833 54.9166
RightForeArm  40.418 14.0572 2.51676
RightHand  1.34958 -13.7658 -10.7705
LeftShoulder1  -0.00292474 2.38041 -6.78754
LeftArm  -19.7536 24.0614 -74.4874
LeftForeArm  30.7165 -37.0939 -7.6585
LeftHand  0.00480094 0.719782 1.19231
HEad  -13.1045 25.9936 -11.0856
RightUpLeg  -11.9994 -15.2492 8.74419
RightLeg  13.0836 -7.87006 -1.29605
RightFoot  -2.69312 -0.000341473 0.363118
RightToes  -17.1035 -0.0662811 -0.153135
320
root  5.50847 33.6839 4.31252 7.0912 -46.351 -3.21341
LeftUpLeg  -19.8866 11.3512 13.0118
LeftLeg  14.7464 15.289 2.95015
LeftFoot  9.60429 -0.221459 2.63564
LeftToes  -15.6444 1.85109e-006 5.31342e-008
Spine  3.52521 2.57817 4.8378
Spine1  7.15297 5.66373 8.39069
RightShoulder  0.27554 7.50139 10.0298
RightArm  -34.9037 -2.58379 55.0438
RightForeArm  40.211 14.2306 2.54947
RightHand  1.32978 -13.7726 -10.6027
LeftShoulder1  -0.00334855 2.36812 -6.73685
LeftArm  -19.5202 23.8457 -74.426
LeftForeArm  30.6517 -37.7186 -7.83543
LeftHand  0.00421728 0.64485 1.20772
HEad  -13.2134 25.2245 -10.7443
RightUpLeg  -12.0131 -15.6461 8.36899
RightLeg  12.6057 -7.79167 -1.21672
RightFoot  -2.34647 -0.00119669 0.319212
RightToes  -17.2918 -0.0683494 -0.155302
